<?xml version="1.0" encoding="UTF-8"?>
<svg id="Layer_1" data-name="Layer 1" xmlns="http://www.w3.org/2000/svg" viewBox="0 0 1000 166.96">
  <defs>
    <style>
      .cls-1 {
        fill: #21214c;
      }
    </style>
  </defs>
  <rect class="cls-1" y="-.14" width="36.25" height="165.33"/>
  <path class="cls-1" d="m88.51,61.26v-15.72h-33.14v119.65h34.69v-56.49c0-11.42,2.89-19.87,8.67-25.35,5.78-5.48,13.57-8.23,23.35-8.23,1.18,0,2.41.08,3.67.22,1.26.15,2.56.37,3.89.67v-32.25c-11.27,0-20.83,2.19-28.69,6.56-5.04,2.81-9.18,6.46-12.45,10.94Z"/>
  <path class="cls-1" d="m230.27,51.65c-9.93-5.26-21.28-7.89-34.03-7.89s-23.83,2.63-33.69,7.89c-9.86,5.26-17.61,12.53-23.24,21.79-5.64,9.27-8.45,19.9-8.45,31.91s2.81,22.43,8.45,31.69c5.63,9.27,13.38,16.57,23.24,21.91,9.86,5.34,21.09,8.01,33.69,8.01s24.09-2.67,34.03-8.01c9.93-5.34,17.72-12.6,23.35-21.79,5.63-9.19,8.45-19.79,8.45-31.8s-2.82-22.65-8.45-31.91c-5.64-9.26-13.42-16.53-23.35-21.79Zm-7.45,71.5c-2.75,5.04-6.38,8.86-10.9,11.45-4.52,2.6-9.75,3.89-15.68,3.89s-10.75-1.3-15.35-3.89c-4.6-2.59-8.27-6.41-11.01-11.45-2.75-5.04-4.11-10.97-4.11-17.79s1.37-12.9,4.11-17.79c2.74-4.89,6.41-8.64,11.01-11.23,4.59-2.59,9.79-3.89,15.57-3.89s10.93,1.3,15.46,3.89c4.52,2.6,8.15,6.34,10.9,11.23,2.74,4.89,4.11,10.82,4.11,17.79s-1.37,12.75-4.11,17.79Z"/>
  <path class="cls-1" d="m371.66,49.43c-7.49-3.78-15.98-5.67-25.46-5.67-10.23,0-19.35,2.15-27.35,6.45-4.73,2.54-8.8,5.74-12.23,9.58v-14.25h-33.14v119.65h34.69v-59.16c0-7.56,1.22-13.64,3.67-18.24,2.45-4.59,5.86-8.08,10.23-10.45,4.37-2.37,9.3-3.56,14.79-3.56,7.71,0,13.68,2.3,17.9,6.89,4.23,4.6,6.34,11.71,6.34,21.35v63.16h34.69v-68.5c0-12.16-2.15-22.13-6.45-29.91-4.3-7.78-10.2-13.57-17.68-17.35Z"/>
  <path class="cls-1" d="m518.33,6.78c-10.08-4.52-22.09-6.78-36.03-6.78h-67.39v165.18h36.25v-52.43h31.14c13.93,0,25.94-2.3,36.03-6.89,10.08-4.59,17.86-11.08,23.35-19.46,5.48-8.37,8.23-18.42,8.23-30.13s-2.75-21.57-8.23-30.02c-5.49-8.45-13.27-14.94-23.35-19.46Zm-13.12,69.5c-5.64,4.75-13.94,7.12-24.91,7.12h-29.13V29.36h29.13c10.97,0,19.27,2.34,24.91,7.01,5.63,4.67,8.45,11.31,8.45,19.9s-2.82,15.27-8.45,20.02Z"/>
  <rect class="cls-1" x="561.47" y=".17" width="34.69" height="165.02"/>
  <path class="cls-1" d="m706.06,56.65c-10.08-8.6-24.24-12.9-42.48-12.9-9.49,0-18.83,1.22-28.02,3.67-9.19,2.45-17.05,6.04-23.57,10.79l12.23,24.24c4.45-3.41,9.75-6.12,15.9-8.12,6.15-2,12.42-3,18.79-3,9.34,0,16.27,2.08,20.79,6.23,4.52,4.15,6.78,9.93,6.78,17.35v.22h-27.35c-12.31,0-22.24,1.48-29.8,4.45-7.56,2.97-13.09,7.15-16.57,12.57-3.49,5.41-5.23,11.6-5.23,18.57s1.81,12.98,5.45,18.46c3.63,5.49,8.78,9.82,15.46,13.01,6.67,3.19,14.6,4.78,23.8,4.78,10.53,0,19.13-2.04,25.8-6.12,4.52-2.76,8.06-6.31,10.68-10.6v14.93h32.47v-68.28c0-18.24-5.04-31.65-15.12-40.25Zm-29.47,82.95c-4.67,2.67-9.97,4-15.9,4s-10.64-1.3-14.12-3.89c-3.49-2.59-5.23-6.12-5.23-10.56,0-4,1.52-7.34,4.56-10.01,3.04-2.67,8.64-4,16.79-4h23.8v12.23c-1.93,5.49-5.23,9.56-9.9,12.23Z"/>
  <path class="cls-1" d="m838.49,49.43c-7.49-3.78-15.98-5.67-25.46-5.67-10.23,0-19.35,2.15-27.35,6.45-4.73,2.54-8.8,5.75-12.23,9.58v-14.25h-33.14v119.65h34.69v-59.16c0-7.56,1.22-13.64,3.67-18.24,2.45-4.59,5.86-8.08,10.23-10.45,4.37-2.37,9.3-3.56,14.79-3.56,7.71,0,13.68,2.3,17.9,6.89,4.23,4.6,6.34,11.71,6.34,21.35v63.16h34.69v-68.5c0-12.16-2.15-22.13-6.45-29.91-4.3-7.78-10.2-13.57-17.68-17.35Z"/>
  <path class="cls-1" d="m991.77,72.67c-5.49-9.19-12.94-16.31-22.35-21.35-9.42-5.04-19.98-7.56-31.69-7.56s-23.09,2.63-32.8,7.89c-9.71,5.26-17.27,12.57-22.68,21.91-5.41,9.34-8.12,19.94-8.12,31.8s2.81,22.43,8.45,31.69c5.63,9.27,13.57,16.57,23.8,21.91,10.23,5.34,22.16,8.01,35.81,8.01,10.82,0,20.38-1.67,28.69-5,8.3-3.34,15.2-8.12,20.68-14.34l-18.46-20.02c-4,3.86-8.42,6.75-13.23,8.67-4.82,1.93-10.34,2.89-16.57,2.89-7.27,0-13.49-1.3-18.68-3.89-5.19-2.59-9.27-6.34-12.23-11.23-1.63-2.69-2.8-5.66-3.53-8.9h90.49c.15-1.48.3-3.08.44-4.78.15-1.7.22-3.22.22-4.56,0-12.9-2.75-23.94-8.23-33.14Zm-69.5,1.22c4.52-2.59,9.75-3.89,15.68-3.89s11.12,1.3,15.57,3.89c4.45,2.6,7.93,6.19,10.45,10.79,1.67,3.05,2.74,6.46,3.24,10.23h-58.75c.58-3.71,1.62-7.11,3.24-10.12,2.52-4.67,6.04-8.3,10.56-10.9Z"/>
  <polygon class="cls-1" points="369.27 .02 55.34 .02 55.34 26.34 395.71 26.34 369.27 .02"/>
</svg>