<svg width="210" height="48" viewBox="0 0 210 48" fill="none" xmlns="http://www.w3.org/2000/svg">
<path fill-rule="evenodd" clip-rule="evenodd" d="M56.0969 4.63281L28.0469 26.5869V37.4632L47.1209 23.9685V40.5851L56.0969 33.9385V4.63281Z" fill="white"/>
<path fill-rule="evenodd" clip-rule="evenodd" d="M0 4.63281L28.05 26.5869V37.4632L8.976 23.9685V40.5851L0 33.9385V4.63281Z" fill="white"/>
<path fill-rule="evenodd" clip-rule="evenodd" d="M44.8769 0L28.0469 11.8834V21.0477L36.7169 14.3004V17.3216L44.8769 11.0777V0Z" fill="white"/>
<path fill-rule="evenodd" clip-rule="evenodd" d="M11.2188 0L28.0487 11.8834V21.0477L19.3787 14.3004V17.3216L11.2188 11.0777V0Z" fill="white"/>
<path d="M11.3203 41.3913V28.6016L19.6843 34.7447V47.4337L11.3203 41.3913Z" fill="white"/>
<path d="M45.0828 41.3913V28.6016L36.7188 34.7447V47.4337L45.0828 41.3913Z" fill="white"/>
<path d="M76.344 17.968L79.192 29.168H76.616L75.096 22.72H75.064L72.984 27.568H71.208L69.144 22.72H69.112L67.592 29.168H65L67.864 17.968H69.736L72.088 23.76H72.12L74.472 17.968H76.344ZM89.3899 29.168L88.5899 26.896H84.2859L83.4859 29.168H80.7019L85.1179 17.968H87.7419L92.1579 29.168H89.3899ZM85.0539 24.688H87.8219L86.4299 20.72L85.0539 24.688ZM104.538 22.688C104.554 22.88 104.554 23.072 104.554 23.264C104.554 26.784 102.826 29.408 99.0664 29.408C95.6104 29.408 93.1304 27.184 93.1304 23.536C93.1304 20.064 95.4344 17.728 99.2424 17.728C101.05 17.728 102.458 18.272 103.658 19.2L102.042 21.328C101.178 20.672 100.282 20.288 99.1784 20.288C97.0504 20.288 95.8664 21.696 95.8664 23.552C95.8664 25.456 97.0824 26.848 99.2424 26.848C101.05 26.848 101.802 25.824 101.93 24.912H99.0504V22.688H104.538ZM109.546 26.848H114.074V29.168H107.066V17.968H113.994V20.288H109.546V22.048H113.546V24.304H109.546V26.848ZM127.198 17.968L130.046 29.168H127.47L125.95 22.72H125.918L123.838 27.568H122.062L119.998 22.72H119.966L118.446 29.168H115.854L118.718 17.968H120.59L122.942 23.76H122.974L125.326 17.968H127.198ZM137.406 17.728C140.734 17.728 143.31 20.064 143.31 23.568C143.31 27.072 140.734 29.408 137.406 29.408C134.078 29.408 131.502 27.072 131.502 23.568C131.502 20.064 134.078 17.728 137.406 17.728ZM137.406 20.288C135.614 20.288 134.238 21.552 134.238 23.568C134.238 25.584 135.614 26.848 137.406 26.848C139.198 26.848 140.574 25.584 140.574 23.568C140.574 21.552 139.198 20.288 137.406 20.288ZM155.858 17.968V29.168H153.746L148.402 22.272H148.386V29.168H145.906V17.968H148.002L153.362 24.896H153.378V17.968H155.858ZM166.58 17.968V20.288H163.636V29.168H161.156V20.288H158.196V17.968H166.58ZM174.695 29.168L171.879 24.928H171.399V29.168H168.919V17.968H173.399C175.911 17.968 177.207 19.52 177.207 21.472C177.207 23.12 176.327 24.4 174.599 24.8L177.799 29.168H174.695ZM171.399 20.224V22.848H173.031C174.023 22.848 174.583 22.464 174.583 21.536C174.583 20.704 174.023 20.224 173.031 20.224H171.399ZM182.554 26.848H187.082V29.168H180.074V17.968H187.002V20.288H182.554V22.048H186.554V24.304H182.554V26.848ZM197.551 29.168L196.751 26.896H192.447L191.647 29.168H188.863L193.279 17.968H195.903L200.319 29.168H197.551ZM193.215 24.688H195.983L194.591 20.72L193.215 24.688ZM204.911 17.968V26.832H209.375V29.168H202.431V17.968H204.911Z" fill="white"/>
</svg>
